<?xml version="1.0" standalone="no"?>
<!DOCTYPE svg PUBLIC "-//W3C//DTD SVG 20010904//EN"
 "http://www.w3.org/TR/2001/REC-SVG-20010904/DTD/svg10.dtd">
<svg version="1.0" xmlns="http://www.w3.org/2000/svg"
 width="225.000000pt" height="225.000000pt" viewBox="0 0 225.000000 225.000000"
 preserveAspectRatio="xMidYMid meet">
<defs>
    <style>
      * {
        fill: #fff;
      }
    </style>
  </defs>
<g transform="translate(0.000000,225.000000) scale(0.100000,-0.100000)"
fill="#000000" stroke="none">
<path d="M986 1655 c-189 -52 -342 -206 -390 -391 -33 -128 -15 -280 47 -399
40 -77 145 -182 222 -222 216 -113 477 -74 645 96 108 109 160 235 160 386 0
152 -52 278 -160 385 -109 110 -235 161 -391 159 -46 0 -106 -7 -133 -14z
m269 -10 c33 -9 85 -28 115 -43 73 -35 198 -160 233 -232 76 -157 76 -332 0
-490 -34 -72 -159 -196 -233 -232 -156 -77 -333 -77 -490 0 -74 36 -199 161
-233 232 -76 158 -76 332 0 490 34 72 159 196 233 232 117 57 257 73 375 43z"/>
<path d="M1120 1580 c0 -27 5 -50 10 -50 6 0 10 23 10 50 0 28 -4 50 -10 50
-5 0 -10 -22 -10 -50z"/>
<path d="M993 1613 c-13 -2 -23 -10 -23 -16 0 -28 22 -87 32 -87 5 0 8 7 5 15
-9 21 7 27 29 10 26 -20 42 -19 22 1 -13 13 -14 21 -5 35 8 13 8 21 -2 33 -14
16 -18 17 -58 9z m44 -29 c5 -15 -28 -27 -40 -15 -5 5 -6 14 -2 21 8 13 37 9
42 -6z"/>
<path d="M1212 1582 c-15 -48 -15 -62 -2 -62 6 0 10 9 10 19 0 35 18 32 31 -4
17 -45 29 -41 45 16 16 53 16 49 4 49 -5 0 -12 -11 -16 -25 -8 -34 -19 -31
-30 7 -13 45 -29 45 -42 0z"/>
<path d="M832 1538 c-15 -15 -15 -61 0 -76 21 -21 66 -14 84 13 15 23 15 27 0
50 -18 27 -63 34 -84 13z m68 -23 c10 -12 10 -18 0 -30 -27 -32 -71 -8 -56 30
3 8 14 15 24 15 11 0 25 -7 32 -15z"/>
<path d="M1354 1515 c-20 -30 -11 -58 22 -74 20 -9 30 -9 40 0 19 15 18 35 -2
43 -24 9 -28 7 -15 -7 11 -14 6 -27 -10 -27 -5 0 -13 9 -19 21 -9 15 -8 24 1
35 15 18 48 18 55 -1 4 -8 10 -12 16 -9 15 10 -23 44 -48 44 -14 0 -30 -10
-40 -25z"/>
<path d="M1005 1473 c-78 -28 -143 -79 -185 -144 -122 -189 -54 -437 146 -535
53 -26 69 -29 159 -29 90 0 106 3 159 29 76 37 135 96 172 172 26 53 29 69 29
159 0 87 -3 107 -27 157 -34 73 -104 143 -176 176 -76 34 -203 41 -277 15z
m278 -31 c76 -38 129 -92 166 -171 22 -48 26 -70 26 -146 0 -82 -3 -97 -33
-157 -38 -77 -92 -130 -171 -167 -47 -22 -70 -26 -146 -26 -76 0 -99 4 -146
26 -126 59 -201 172 -207 309 -7 157 74 283 225 346 49 21 71 24 140 21 67 -3
93 -9 146 -35z"/>
<path d="M1110 1419 c0 -5 5 -7 10 -4 6 3 10 8 10 11 0 2 -4 4 -10 4 -5 0 -10
-5 -10 -11z"/>
<path d="M1201 1404 c0 -11 3 -14 6 -6 3 7 2 16 -1 19 -3 4 -6 -2 -5 -13z"/>
<path d="M1235 1410 c-3 -5 -1 -10 4 -10 6 0 11 5 11 10 0 6 -2 10 -4 10 -3 0
-8 -4 -11 -10z"/>
<path d="M1091 1394 c0 -11 3 -14 6 -6 3 7 2 16 -1 19 -3 4 -6 -2 -5 -13z"/>
<path d="M1121 1384 c0 -11 3 -14 6 -6 3 7 2 16 -1 19 -3 4 -6 -2 -5 -13z"/>
<path d="M1300 1390 c0 -5 5 -10 11 -10 5 0 7 5 4 10 -3 6 -8 10 -11 10 -2 0
-4 -4 -4 -10z"/>
<path d="M985 1370 c3 -5 8 -10 11 -10 2 0 4 5 4 10 0 6 -5 10 -11 10 -5 0 -7
-4 -4 -10z"/>
<path d="M1147 1373 c-4 -3 -7 -11 -7 -17 0 -6 5 -5 12 2 6 6 9 14 7 17 -3 3
-9 2 -12 -2z"/>
<path d="M1228 1373 c7 -3 16 -2 19 1 4 3 -2 6 -13 5 -11 0 -14 -3 -6 -6z"/>
<path d="M1080 1360 c0 -5 5 -10 11 -10 5 0 7 5 4 10 -3 6 -8 10 -11 10 -2 0
-4 -4 -4 -10z"/>
<path d="M1311 1344 c0 -11 3 -14 6 -6 3 7 2 16 -1 19 -3 4 -6 -2 -5 -13z"/>
<path d="M915 1340 c3 -5 8 -10 11 -10 2 0 4 5 4 10 0 6 -5 10 -11 10 -5 0 -7
-4 -4 -10z"/>
<path d="M950 1340 c0 -5 5 -10 11 -10 5 0 7 5 4 10 -3 6 -8 10 -11 10 -2 0
-4 -4 -4 -10z"/>
<path d="M980 1340 c0 -5 7 -10 16 -10 8 0 12 5 9 10 -3 6 -10 10 -16 10 -5 0
-9 -4 -9 -10z"/>
<path d="M1253 1336 c3 -8 1 -17 -6 -19 -7 -2 -8 -8 -4 -13 4 -5 12 -2 17 6
13 20 12 40 -1 40 -6 0 -9 -6 -6 -14z"/>
<path d="M1055 1330 c-3 -5 1 -10 10 -10 9 0 13 5 10 10 -3 6 -8 10 -10 10 -2
0 -7 -4 -10 -10z"/>
<path d="M1280 1330 c0 -5 5 -10 10 -10 6 0 10 5 10 10 0 6 -4 10 -10 10 -5 0
-10 -4 -10 -10z"/>
<path d="M900 1321 c0 -5 5 -13 10 -16 6 -3 10 -2 10 4 0 5 -4 13 -10 16 -5 3
-10 2 -10 -4z"/>
<path d="M1330 1319 c0 -5 5 -7 10 -4 6 3 10 8 10 11 0 2 -4 4 -10 4 -5 0 -10
-5 -10 -11z"/>
<path d="M940 1311 c0 -6 5 -13 10 -16 6 -3 10 1 10 9 0 9 -4 16 -10 16 -5 0
-10 -4 -10 -9z"/>
<path d="M1200 1304 c0 -8 5 -12 10 -9 6 4 8 11 5 16 -9 14 -15 11 -15 -7z"/>
<path d="M1007 1303 c-4 -3 -7 -11 -7 -17 0 -6 5 -5 12 2 6 6 9 14 7 17 -3 3
-9 2 -12 -2z"/>
<path d="M1135 1299 c-4 -6 -5 -12 -2 -15 2 -3 7 2 10 11 7 17 1 20 -8 4z"/>
<path d="M1270 1300 c0 -5 7 -10 16 -10 8 0 12 5 9 10 -3 6 -10 10 -16 10 -5
0 -9 -4 -9 -10z"/>
<path d="M885 1290 c3 -5 8 -10 11 -10 2 0 4 5 4 10 0 6 -5 10 -11 10 -5 0 -7
-4 -4 -10z"/>
<path d="M1175 1291 c-3 -5 -1 -12 5 -16 5 -3 10 1 10 9 0 18 -6 21 -15 7z"/>
<path d="M1325 1290 c-3 -5 1 -10 9 -10 9 0 16 -7 16 -17 0 -9 3 -14 6 -10 8
8 -5 47 -16 47 -5 0 -12 -4 -15 -10z"/>
<path d="M920 1279 c0 -5 5 -7 10 -4 6 3 10 8 10 11 0 2 -4 4 -10 4 -5 0 -10
-5 -10 -11z"/>
<path d="M970 1280 c0 -5 5 -10 10 -10 6 0 10 5 10 10 0 6 -4 10 -10 10 -5 0
-10 -4 -10 -10z"/>
<path d="M1238 1273 c7 -3 16 -2 19 1 4 3 -2 6 -13 5 -11 0 -14 -3 -6 -6z"/>
<path d="M1387 1273 c-4 -3 -7 -11 -7 -17 0 -6 5 -5 12 2 6 6 9 14 7 17 -3 3
-9 2 -12 -2z"/>
<path d="M880 1260 c0 -5 5 -10 11 -10 5 0 7 5 4 10 -3 6 -8 10 -11 10 -2 0
-4 -4 -4 -10z"/>
<path d="M955 1250 c3 -5 8 -10 11 -10 2 0 4 5 4 10 0 6 -5 10 -11 10 -5 0 -7
-4 -4 -10z"/>
<path d="M1320 1251 c0 -5 5 -13 10 -16 6 -3 10 -2 10 4 0 5 -4 13 -10 16 -5
3 -10 2 -10 -4z"/>
<path d="M1405 1240 c4 -6 11 -8 16 -5 14 9 11 15 -7 15 -8 0 -12 -5 -9 -10z"/>
<path d="M870 1226 c0 -9 5 -16 10 -16 6 0 10 4 10 9 0 6 -4 13 -10 16 -5 3
-10 -1 -10 -9z"/>
<path d="M900 1224 c0 -8 5 -12 10 -9 6 3 10 10 10 16 0 5 -4 9 -10 9 -5 0
-10 -7 -10 -16z"/>
<path d="M1008 1233 c7 -3 16 -2 19 1 4 3 -2 6 -13 5 -11 0 -14 -3 -6 -6z"/>
<path d="M1271 1226 c-9 -10 -9 -16 -1 -21 6 -4 14 -4 17 -1 4 3 1 6 -7 6 -10
0 -10 3 0 15 7 8 10 15 7 15 -2 0 -10 -6 -16 -14z"/>
<path d="M1375 1230 c-3 -5 1 -10 10 -10 9 0 13 5 10 10 -3 6 -8 10 -10 10 -2
0 -7 -4 -10 -10z"/>
<path d="M840 1220 c0 -5 5 -10 11 -10 5 0 7 5 4 10 -3 6 -8 10 -11 10 -2 0
-4 -4 -4 -10z"/>
<path d="M1112 1200 c0 -19 2 -27 5 -17 2 9 2 25 0 35 -3 9 -5 1 -5 -18z"/>
<path d="M1085 1166 l4 -39 -31 29 c-28 26 -30 27 -15 4 10 -13 17 -27 17 -30
0 -3 -21 -4 -47 -3 l-48 2 53 -10 c63 -13 72 -28 72 -125 0 -64 -17 -123 -45
-154 -12 -13 -4 -15 78 -15 l92 0 -22 21 c-28 28 -43 84 -43 165 0 83 17 108
79 116 31 4 45 2 52 -8 7 -11 9 -10 9 5 0 17 -6 18 -65 12 -70 -7 -80 0 -47
37 9 11 12 17 5 14 -6 -4 -13 -4 -16 0 -2 5 -2 2 -1 -4 2 -7 0 -13 -5 -13 -4
0 -14 -12 -21 -27 -11 -25 -13 -26 -19 -10 -4 10 -11 17 -16 15 -6 -2 -13 11
-17 27 -6 25 -7 23 -3 -9z"/>
<path d="M1320 1184 c0 -8 5 -12 10 -9 6 3 10 10 10 16 0 5 -4 9 -10 9 -5 0
-10 -7 -10 -16z"/>
<path d="M835 1179 c-11 -17 1 -21 15 -4 8 9 8 15 2 15 -6 0 -14 -5 -17 -11z"/>
<path d="M930 1180 c0 -5 5 -10 10 -10 6 0 10 5 10 10 0 6 -4 10 -10 10 -5 0
-10 -4 -10 -10z"/>
<path d="M965 1181 c-3 -5 -1 -12 5 -16 5 -3 10 1 10 9 0 18 -6 21 -15 7z"/>
<path d="M1280 1181 c0 -6 5 -13 10 -16 6 -3 10 1 10 9 0 9 -4 16 -10 16 -5 0
-10 -4 -10 -9z"/>
<path d="M1365 1180 c-3 -5 -1 -10 4 -10 6 0 11 5 11 10 0 6 -2 10 -4 10 -3 0
-8 -4 -11 -10z"/>
<path d="M865 1171 c-3 -5 -1 -12 4 -15 5 -3 11 1 15 9 6 16 -9 21 -19 6z"/>
<path d="M1405 1170 c-3 -5 -1 -10 4 -10 6 0 11 5 11 10 0 6 -2 10 -4 10 -3 0
-8 -4 -11 -10z"/>
<path d="M1325 1150 c4 -6 11 -8 16 -5 14 9 11 15 -7 15 -8 0 -12 -5 -9 -10z"/>
<path d="M1360 1147 c0 -7 10 -13 22 -14 11 -1 24 -7 28 -14 5 -6 13 -8 21 -4
9 6 6 11 -12 18 -13 6 -27 9 -31 9 -5 -1 -8 3 -8 8 0 6 -4 10 -10 10 -5 0 -10
-6 -10 -13z"/>
<path d="M1425 1150 c-3 -5 1 -10 9 -10 9 0 16 5 16 10 0 6 -4 10 -9 10 -6 0
-13 -4 -16 -10z"/>
<path d="M890 1136 c0 -9 5 -16 10 -16 6 0 10 4 10 9 0 6 -4 13 -10 16 -5 3
-10 -1 -10 -9z"/>
<path d="M928 1143 c6 -2 18 -2 25 0 6 3 1 5 -13 5 -14 0 -19 -2 -12 -5z"/>
<path d="M860 1131 c0 -6 5 -13 10 -16 6 -3 10 1 10 9 0 9 -4 16 -10 16 -5 0
-10 -4 -10 -9z"/>
<path d="M830 1120 c0 -5 5 -10 10 -10 6 0 10 5 10 10 0 6 -4 10 -10 10 -5 0
-10 -4 -10 -10z"/>
<path d="M800 1100 c0 -5 5 -10 10 -10 6 0 10 5 10 10 0 6 -4 10 -10 10 -5 0
-10 -4 -10 -10z"/>
<path d="M1315 1100 c-3 -5 1 -10 9 -10 9 0 16 5 16 10 0 6 -4 10 -9 10 -6 0
-13 -4 -16 -10z"/>
<path d="M1366 1085 c-3 -8 -1 -15 4 -15 6 0 10 7 10 15 0 8 -2 15 -4 15 -2 0
-6 -7 -10 -15z"/>
<path d="M1425 1090 c3 -5 11 -10 16 -10 6 0 7 5 4 10 -3 6 -11 10 -16 10 -6
0 -7 -4 -4 -10z"/>
<path d="M837 1083 c-4 -3 -7 -11 -7 -17 0 -6 5 -5 12 2 6 6 9 14 7 17 -3 3
-9 2 -12 -2z"/>
<path d="M896 1081 c-7 -11 3 -41 14 -41 5 0 12 5 15 10 3 6 -1 10 -9 10 -10
0 -13 6 -10 15 7 16 -1 21 -10 6z"/>
<path d="M930 1080 c0 -5 5 -10 11 -10 5 0 7 5 4 10 -3 6 -8 10 -11 10 -2 0
-4 -4 -4 -10z"/>
<path d="M1395 1080 c3 -5 8 -10 11 -10 2 0 4 5 4 10 0 6 -5 10 -11 10 -5 0
-7 -4 -4 -10z"/>
<path d="M860 1064 c0 -8 5 -12 10 -9 6 3 10 10 10 16 0 5 -4 9 -10 9 -5 0
-10 -7 -10 -16z"/>
<path d="M1300 1056 c0 -9 5 -16 10 -16 6 0 10 4 10 9 0 6 -4 13 -10 16 -5 3
-10 -1 -10 -9z"/>
<path d="M1335 1060 c3 -5 8 -10 11 -10 2 0 4 5 4 10 0 6 -5 10 -11 10 -5 0
-7 -4 -4 -10z"/>
<path d="M936 1041 c-4 -7 -5 -15 -2 -18 9 -9 19 4 14 18 -4 11 -6 11 -12 0z"/>
<path d="M734 1420 c5 -27 3 -30 -19 -30 -40 0 -38 -18 6 -50 48 -34 64 -32
29 5 l-23 25 22 0 c18 0 21 4 16 21 -7 21 -6 21 16 5 26 -18 39 -20 39 -7 0 9
-71 61 -84 61 -5 0 -6 -13 -2 -30z"/>
<path d="M1515 1405 c-5 -2 -27 -6 -48 -10 -21 -3 -35 -10 -32 -15 3 -5 12 -7
20 -4 17 7 37 -29 29 -50 -12 -31 14 -15 40 24 31 47 27 67 -9 55z m5 -23 c0
-13 -12 -22 -22 -16 -10 6 -1 24 13 24 5 0 9 -4 9 -8z"/>
<path d="M680 1204 c-13 -60 -9 -140 11 -207 17 -62 18 -38 1 43 -12 60 -13
89 -4 145 13 86 8 97 -8 19z"/>
<path d="M1557 1225 c13 -50 7 -187 -9 -232 -9 -24 -12 -43 -8 -43 5 0 16 34
26 76 17 79 14 179 -6 212 -8 13 -8 9 -3 -13z"/>
<path d="M738 883 c-18 -15 -35 -28 -37 -30 -2 -2 -1 -6 2 -9 4 -4 18 1 33 11
26 17 27 17 21 -4 -4 -17 -1 -21 21 -21 l27 -1 -28 -20 c-15 -11 -24 -25 -21
-30 3 -5 23 5 45 22 42 33 43 49 2 49 -22 0 -24 3 -19 24 9 36 -8 40 -46 9z"/>
<path d="M1440 873 c0 -15 45 -93 54 -93 4 0 5 7 2 16 -8 21 11 44 35 44 35 0
19 18 -25 29 -53 13 -66 14 -66 4z m51 -26 c-1 -12 -15 -9 -19 4 -3 6 1 10 8
8 6 -3 11 -8 11 -12z"/>
<path d="M1342 788 c-7 -7 -12 -24 -12 -38 0 -14 5 -31 12 -38 18 -18 63 -14
82 7 15 16 15 22 5 39 -10 16 -17 18 -31 11 -22 -12 -24 -31 -3 -23 9 4 15 0
15 -9 0 -20 -20 -27 -42 -15 -25 12 -23 49 2 55 11 3 20 9 20 14 0 13 -34 11
-48 -3z"/>
<path d="M845 770 c-23 -26 -13 -68 19 -76 39 -9 60 -1 70 28 19 54 -50 91
-89 48z m73 -24 c6 -27 -25 -48 -49 -35 -22 11 -24 30 -7 47 18 18 52 10 56
-12z"/>
<path d="M1263 715 l6 -35 -35 26 c-19 15 -37 24 -41 21 -8 -9 18 -97 29 -97
6 0 7 13 3 31 l-7 32 30 -22 c41 -29 54 -27 46 7 -18 72 -41 101 -31 37z"/>
<path d="M981 696 c-13 -55 -14 -56 -1 -56 6 0 10 7 10 15 0 22 11 18 38 -12
21 -26 22 -26 17 -5 -4 14 -1 28 9 38 9 8 16 19 16 23 0 13 -23 29 -51 36 -24
6 -27 3 -38 -39z m59 9 c10 -12 9 -16 -5 -21 -19 -8 -40 9 -31 25 10 15 21 14
36 -4z"/>
<path d="M1120 670 c0 -27 5 -50 10 -50 6 0 10 23 10 50 0 28 -4 50 -10 50 -5
0 -10 -22 -10 -50z"/>
</g>
</svg>
